<svg width="24" height="24" viewBox="0 0 24 24" fill="none" xmlns="http://www.w3.org/2000/svg">
	<defs>
		<clipPath id="clip1_459">
			<rect id="Broken / Arrows Action / Login 3" rx="4.500000" width="23.000000" height="23.000000" transform="translate(0.500000 0.500000)" fill="white" fill-opacity="0"/>
		</clipPath>
	</defs>
	<g clip-path="url(#clip1_459)">
		<path id="Vector" d="M8 8C8 5.17 8 3.75 8.87 2.87C9.75 2 11.17 2 14 2L15 2C17.82 2 19.24 2 20.12 2.87C21 3.75 21 5.17 21 8L21 10L21 14L21 16C21 18.82 21 20.24 20.12 21.12C19.35 21.88 18.17 21.98 16 21.99M8 16C8 18.82 8 20.24 8.87 21.12C9.51 21.76 10.44 21.93 12 21.98" stroke="#9BA5B7" stroke-opacity="1.000000" stroke-width="1.500000" stroke-linecap="round"/>
		<path id="Vector" d="M3 9.5L3 14.5C3 16.85 3 18.03 3.73 18.76C4.46 19.5 5.64 19.5 8 19.5M8 4.5C5.64 4.5 4.46 4.5 3.73 5.23" stroke="#9BA5B7" stroke-opacity="1.000000" stroke-width="1.500000" stroke-linecap="round"/>
		<path id="Vector" d="M6 12L15 12M12.5 9.5L15 12L12.5 14.5" stroke="#9BA5B7" stroke-opacity="1.000000" stroke-width="1.500000" stroke-linecap="round"/>
	</g>
</svg>
