<svg xmlns="http://www.w3.org/2000/svg" width="24" height="24" viewBox="0 0 24 24" fill="none">
<path d="M11.6279 16.7982C11.5738 16.7982 11.5017 16.7802 11.4115 16.7441C11.3394 16.708 11.2582 16.672 11.1681 16.6359L1.42996 10.0086C1.1775 9.82826 0.979127 9.65694 0.834859 9.49464C0.708625 9.3143 0.645508 9.08888 0.645508 8.81838V7.97982C0.645508 7.70932 0.708625 7.49292 0.834859 7.33062C0.979127 7.16831 1.1775 6.997 1.42996 6.81666L11.1681 0.189351C11.2582 0.135251 11.3394 0.0901679 11.4115 0.0541003C11.5017 0.0180337 11.5738 0 11.6279 0C11.7902 0 11.9255 0.0541007 12.0337 0.162301C12.1419 0.270502 12.196 0.405753 12.196 0.568054V3.46243C12.196 3.75097 12.1148 3.97639 11.9525 4.13869C11.7902 4.28296 11.6189 4.41821 11.4386 4.54444L5.5416 8.41263L11.4386 12.3079C11.6189 12.4161 11.7902 12.5423 11.9525 12.6866C12.1148 12.8308 12.196 13.0472 12.196 13.3358V16.2572C12.196 16.4195 12.1419 16.5548 12.0337 16.663C11.9255 16.7531 11.7902 16.7982 11.6279 16.7982Z" fill="#D77CE6"/>
<path d="M12.2639 7.03791C12.3721 7.03791 12.5164 7.09201 12.6967 7.20021L22.57 13.9087C22.8405 14.089 23.0389 14.2693 23.1651 14.4497C23.2914 14.63 23.3545 14.8464 23.3545 15.0989L23.3545 15.9645C23.3545 16.217 23.3004 16.4243 23.1922 16.5866C23.066 16.7489 22.8586 16.9293 22.57 17.1277L12.6967 23.8361C12.5164 23.9443 12.3721 23.9984 12.2639 23.9984C12.1016 23.9984 11.9663 23.9443 11.8581 23.8361C11.7499 23.7459 11.6958 23.6107 11.6958 23.4304L11.6958 20.3737C11.6958 20.1032 11.768 19.8868 11.9122 19.7245C12.0385 19.5802 12.2188 19.4359 12.4532 19.2917L18.2149 15.5317L12.4532 11.7447C12.2008 11.5643 12.0114 11.402 11.8852 11.2577C11.759 11.1315 11.6958 10.9422 11.6958 10.6897L11.6958 7.60597C11.6958 7.44366 11.7499 7.30841 11.8581 7.20021C11.9663 7.09201 12.1016 7.03791 12.2639 7.03791Z" fill="#6C38CC"/>
</svg>
